# xmcd
#
# Track frame offsets:
#  150
#  23349
#  42452
#  62314
#  80378
#  98805
#  115383
#  134557
#  148832
#  162624
#  180771
#  198061
#  215745
#  231488
#  246668
#  262646
#
# Disc length: 3797 seconds
#
# Revision: 0
# Processed by: cddbd v1.5.1PL2 Copyright (c) Steve Scherf et al.
# Submitted via: Collectorz.com_Music_Collector 6.9
#
DISCID=de0ed310
DTITLE=Various Artist - Urban Car Tunes [CD01)
DYEAR=2005
DGENRE=*  Various
TTITLE0=Young G's - Junior M.A.F.I.A. ft. Notorious Big
TTITLE1=Tell 'm Who Send Yo Ass - Boo Yaa Tribe
TTITLE2=Dolla Signs - Tupac, DMX and Xzibit
TTITLE3=Rollin' - Redman ft. KFAM and Keith Murray
TTITLE4=Workin'  With Something - Young Buck
TTITLE5=Caught In The Wind - 50 Cent ft. Young Buck
TTITLE6=Makin' Moves - D12 ft. Leal and Kon Artis
TTITLE7=That's Gangsta - Kurupt and Ras Kass
TTITLE8=Mobb Niggaz - Prodigy ft. Infamous Mobb
TTITLE9=Xchange - Snoop Dogg????  ft. Typhoon
TTITLE10=187 Ulm - Dr. Dre and Snoop Dogg
TTITLE11=A Lil Bit Of Everything U.T.P. - G Unit ft. 50 Cent 
TTITLE12=Original Bad Boys - DMX, Tupac and Xzibit
TTITLE13=4 Much - Bad Azz, Lil J, Nate Dogg, Rass Kass and Tash
TTITLE14=Can I Get Wit'cha - The Notorious Big ft. Lil Cease
TTITLE15=What Would U Do? - Tha Dogg Pound ft. Snoop Dogg
EXTD=
EXTT0=
EXTT1=
EXTT2=
EXTT3=
EXTT4=
EXTT5=
EXTT6=
EXTT7=
EXTT8=
EXTT9=
EXTT10=
EXTT11=
EXTT12=
EXTT13=
EXTT14=
EXTT15=
PLAYORDER=
